<svg width="189" height="88" viewBox="0 0 189 88" fill="none" xmlns="http://www.w3.org/2000/svg">
<path d="M22.1263 48.9066C23.2669 54.8474 27.178 57.5989 31.9807 58.6726C36.2416 59.6239 40.7999 60.0159 45.1361 59.7771C53.9833 59.2818 62.7031 57.6872 71.7114 54.5634C71.3272 52.4835 70.9428 50.4037 70.5586 48.3238C69.3621 42.5298 67.6413 36.7882 67.116 30.9978C66.233 20.7418 70.2733 12.236 78.1146 5.55703C86.1359 -1.26345 96.3602 -1.40196 104.446 5.50448C117.785 16.9348 118.902 31.6511 110.887 44.1902C108.518 47.869 105.325 51.0653 102.136 54.1374C99.5162 56.7115 96.3979 58.7176 92.8985 61.503C94.1951 63.1741 95.1546 65.1788 96.7764 66.2172C100.478 68.6366 104.237 71.4562 108.368 72.5263C131.583 78.5573 153.134 75.1695 171.905 59.3319C176.107 55.8055 179.98 51.8176 181.661 46.1953C181.951 45.2131 183.978 44.3045 185.225 44.233C187.317 44.1476 188.856 45.9532 188.631 47.7586C188.172 50.9464 187.506 54.3493 186.02 57.1455C179.812 68.6922 170.006 76.5558 158.042 81.3694C145.875 86.2738 133.095 88.0444 119.958 87.1147C106.126 86.1307 94.0707 81.3682 84.3841 71.1618C83.1224 69.8403 81.7085 68.587 79.774 66.7149C64.0717 69.9777 48.0528 74.8432 30.1613 72.2699C31.351 75.8757 32.3349 78.4782 33.093 81.121C33.7884 83.4875 32.9823 85.4921 31.126 87.0543C29.3483 88.5205 25.9297 88.2264 24.0739 86.2582C22.3141 84.3686 20.5824 82.4057 19.2841 80.1876C13.6208 70.6738 8.03621 61.0639 2.4516 51.454C1.89594 50.4857 1.39091 49.4947 1.038 48.4355C-0.310765 44.4749 1.1945 40.6353 5.19527 39.512C16.9441 36.2557 28.7785 33.3262 40.5676 30.2954C41.5988 30.0158 42.9796 29.7014 43.8324 30.1105C45.3913 30.8727 47.1146 31.8656 47.8747 33.2901C48.3849 34.1571 47.6925 36.4152 46.7643 37.1963C44.5933 39.143 42.1567 40.9044 39.521 42.0856C35.8207 43.7437 31.848 44.7936 28.0342 46.1983C26.136 46.9881 24.2045 47.9754 22.1263 48.9066ZM84.4463 49.161C92.9303 46.0895 98.1007 42.0074 101.275 36.3241C105.555 28.624 103.803 20.0965 96.9053 14.4835C93.3489 11.5731 89.4741 11.4835 85.8 14.2864C80.7135 18.1483 78.378 23.3947 78.5834 29.6937C78.7451 36.4383 80.6929 42.6868 84.4463 49.161Z" fill="white"/>
</svg>
