<svg width="682" height="648" viewBox="0 0 682 648" fill="none" xmlns="http://www.w3.org/2000/svg">
<g filter="url(#filter0_f_2637_171)">
<g filter="url(#filter1_d_2637_171)">
<path d="M349.804 346.407C385.136 374.274 436.369 368.222 464.236 332.889C492.103 297.557 486.051 246.324 450.718 218.457C415.386 190.59 364.153 196.642 336.286 231.975C308.42 267.307 314.472 318.54 349.804 346.407Z" fill="url(#paint0_linear_2637_171)" fill-opacity="0.62" shape-rendering="crispEdges"/>
</g>
</g>
<path d="M403.615 456H1.00001V646.858H599.074C599.074 634.743 594.966 623.352 588.012 616.182L456.006 480.105C440.814 464.445 422.461 456 403.615 456Z" stroke="url(#paint1_linear_2637_171)" stroke-width="0.75"/>
<defs>
<filter id="filter0_f_2637_171" x="118.78" y="0.950439" width="562.963" height="562.963" filterUnits="userSpaceOnUse" color-interpolation-filters="sRGB">
<feFlood flood-opacity="0" result="BackgroundImageFix"/>
<feBlend mode="normal" in="SourceGraphic" in2="BackgroundImageFix" result="shape"/>
<feGaussianBlur stdDeviation="100" result="effect1_foregroundBlur_2637_171"/>
</filter>
<filter id="filter1_d_2637_171" x="318.78" y="200.95" width="162.963" height="166.963" filterUnits="userSpaceOnUse" color-interpolation-filters="sRGB">
<feFlood flood-opacity="0" result="BackgroundImageFix"/>
<feColorMatrix in="SourceAlpha" type="matrix" values="0 0 0 0 0 0 0 0 0 0 0 0 0 0 0 0 0 0 127 0" result="hardAlpha"/>
<feOffset dy="4"/>
<feComposite in2="hardAlpha" operator="out"/>
<feColorMatrix type="matrix" values="0 0 0 0 0 0 0 0 0 0 0 0 0 0 0 0 0 0 0.25 0"/>
<feBlend mode="normal" in2="BackgroundImageFix" result="effect1_dropShadow_2637_171"/>
<feBlend mode="normal" in="SourceGraphic" in2="effect1_dropShadow_2637_171" result="shape"/>
</filter>
<linearGradient id="paint0_linear_2637_171" x1="450.718" y1="218.457" x2="349.804" y2="346.407" gradientUnits="userSpaceOnUse">
<stop stop-color="#402BC9"/>
<stop offset="0.5" stop-color="#B9A6FF"/>
<stop offset="0.75" stop-color="#6F5CEA"/>
<stop offset="1" stop-color="#6F5CEA"/>
</linearGradient>
<linearGradient id="paint1_linear_2637_171" x1="234.298" y1="646.236" x2="234.298" y2="456" gradientUnits="userSpaceOnUse">
<stop stop-color="#000A4D" stop-opacity="0"/>
<stop offset="1" stop-color="#581CC9" stop-opacity="0.8"/>
</linearGradient>
</defs>
</svg>
