<svg width="682" height="648" viewBox="0 0 682 648" fill="none" xmlns="http://www.w3.org/2000/svg">
<g filter="url(#filter0_f_2637_147)">
<g filter="url(#filter1_d_2637_147)">
<path d="M332.27 346.407C296.937 374.274 245.704 368.222 217.838 332.889C189.971 297.557 196.023 246.324 231.355 218.457C266.688 190.59 317.921 196.642 345.787 231.975C373.654 267.307 367.602 318.54 332.27 346.407Z" fill="url(#paint0_linear_2637_147)" fill-opacity="0.62" shape-rendering="crispEdges"/>
</g>
</g>
<path d="M278.459 456H681.074V646.858H83C83 634.743 87.1082 623.352 94.0625 616.182L226.068 480.105C241.26 464.445 259.614 456 278.459 456Z" stroke="url(#paint1_linear_2637_147)" stroke-width="0.75"/>
<defs>
<filter id="filter0_f_2637_147" x="0.331055" y="0.950439" width="562.963" height="562.963" filterUnits="userSpaceOnUse" color-interpolation-filters="sRGB">
<feFlood flood-opacity="0" result="BackgroundImageFix"/>
<feBlend mode="normal" in="SourceGraphic" in2="BackgroundImageFix" result="shape"/>
<feGaussianBlur stdDeviation="100" result="effect1_foregroundBlur_2637_147"/>
</filter>
<filter id="filter1_d_2637_147" x="200.331" y="200.95" width="162.963" height="166.963" filterUnits="userSpaceOnUse" color-interpolation-filters="sRGB">
<feFlood flood-opacity="0" result="BackgroundImageFix"/>
<feColorMatrix in="SourceAlpha" type="matrix" values="0 0 0 0 0 0 0 0 0 0 0 0 0 0 0 0 0 0 127 0" result="hardAlpha"/>
<feOffset dy="4"/>
<feComposite in2="hardAlpha" operator="out"/>
<feColorMatrix type="matrix" values="0 0 0 0 0 0 0 0 0 0 0 0 0 0 0 0 0 0 0.25 0"/>
<feBlend mode="normal" in2="BackgroundImageFix" result="effect1_dropShadow_2637_147"/>
<feBlend mode="normal" in="SourceGraphic" in2="effect1_dropShadow_2637_147" result="shape"/>
</filter>
<linearGradient id="paint0_linear_2637_147" x1="231.355" y1="218.457" x2="332.27" y2="346.407" gradientUnits="userSpaceOnUse">
<stop stop-color="#402BC9"/>
<stop offset="0.5" stop-color="#B9A6FF"/>
<stop offset="0.75" stop-color="#6F5CEA"/>
<stop offset="1" stop-color="#6F5CEA"/>
</linearGradient>
<linearGradient id="paint1_linear_2637_147" x1="447.777" y1="646.236" x2="447.777" y2="456" gradientUnits="userSpaceOnUse">
<stop stop-color="#000A4D" stop-opacity="0"/>
<stop offset="1" stop-color="#581CC9" stop-opacity="0.8"/>
</linearGradient>
</defs>
</svg>
