<svg width="69" height="69" viewBox="0 0 69 69" fill="none" xmlns="http://www.w3.org/2000/svg">
<g filter="url(#filter0_i_2014_59)">
<rect width="68.7587" height="68.7587" rx="20" fill="#402BC9"/>
</g>
<path d="M21.2916 48.0967L18.4639 16.3799H49.5364L46.7059 48.0919L33.9813 51.6197L21.2916 48.0967V48.0967Z" fill="white"/>
<path d="M34 48.9239L44.2822 46.0732L46.7013 18.9736H34V48.9239Z" fill="#EBEBEB"/>
<path d="M34 30.4641H39.1474L39.5029 26.4808H34V22.5908H43.7543L43.6609 23.6345L42.7047 34.3541H34V30.4641Z" fill="#402BC9"/>
<path d="M34.0238 40.5669L34.0066 40.572L29.6745 39.4023L29.3975 36.2998H25.4932L26.0379 42.4077L34.006 44.6192L34.0238 44.6141V40.5669V40.5669Z" fill="#402BC9"/>
<path d="M38.8169 34.1895L38.3483 39.3988L34.0098 40.5699V44.6171L41.9843 42.407L42.0428 41.7497L42.7195 34.1895H38.8169Z" fill="#402BC9"/>
<path d="M34.0137 22.5908V26.4808H24.6177L24.5398 25.6067L24.3626 23.6345L24.2695 22.5908H34.0137V22.5908ZM34.0005 30.4647V34.3547H29.723L29.6451 33.4805L29.4676 31.5084L29.3748 30.4647H34.0005V30.4647Z" fill="#402BC9"/>
<defs>
<filter id="filter0_i_2014_59" x="0" y="0" width="68.7588" height="70.7588" filterUnits="userSpaceOnUse" color-interpolation-filters="sRGB">
<feFlood flood-opacity="0" result="BackgroundImageFix"/>
<feBlend mode="normal" in="SourceGraphic" in2="BackgroundImageFix" result="shape"/>
<feColorMatrix in="SourceAlpha" type="matrix" values="0 0 0 0 0 0 0 0 0 0 0 0 0 0 0 0 0 0 127 0" result="hardAlpha"/>
<feMorphology radius="1" operator="erode" in="SourceAlpha" result="effect1_innerShadow_2014_59"/>
<feOffset dy="2"/>
<feGaussianBlur stdDeviation="3"/>
<feComposite in2="hardAlpha" operator="arithmetic" k2="-1" k3="1"/>
<feColorMatrix type="matrix" values="0 0 0 0 1 0 0 0 0 1 0 0 0 0 1 0 0 0 0.6 0"/>
<feBlend mode="normal" in2="shape" result="effect1_innerShadow_2014_59"/>
</filter>
</defs>
</svg>
