<svg width="1676" height="947" viewBox="0 0 1676 947" fill="none" xmlns="http://www.w3.org/2000/svg">
<path d="M1676 0H0V942H1676V0Z" fill="white"/>
<path fill-rule="evenodd" clip-rule="evenodd" d="M1559.79 0C1502.23 18.9839 1440.35 26.7441 1348.36 11.8334C1326.09 8.24598 1306.43 4.20934 1288.48 0H1559.79ZM1676 0.449194V26.1291C1609.19 57.7969 1544.46 78.8924 1432.26 73.3878C1262.63 65.0468 1175.44 2.36285 990.777 3.35195C868.237 4.03664 802.828 4.86002 743.391 0H1144.28C1239.08 19.8038 1313.49 51.298 1427.75 56.3577C1544.03 61.4872 1608.22 34.3019 1676 0.449194ZM1676 72.7764V93.7394C1627.14 109.503 1572.62 119.114 1497.67 118.838C1306.01 118.22 1171.85 41.3145 1017 52.0149C938.817 57.9696 881.016 70.7188 807.76 80.0246C727.633 90.1807 698.062 66.6822 633.264 44.8322C592.248 31.0197 542.904 14.6045 490.886 0H551.546C583.181 8.55213 613.914 16.9263 643.179 24.1134C825.887 68.8104 816.161 49.3852 994.247 38.7807C1042.5 35.9102 1078.27 36.9735 1125.43 43.8771C1234.64 61.2823 1308.02 92.7799 1430.37 102.495C1536.24 110.902 1607.43 98.6631 1676 72.7764ZM1676 128.208V143.048C1604.14 156.284 1528.39 158.436 1429.22 145.612C1345.68 134.808 1268.41 113.607 1188.34 96.643C1073.77 72.7023 1003.74 80.6029 895.252 109.025C803.316 135.113 778.67 154.336 702.809 188.02C627.846 221.361 617.985 174.1 595.846 140.007C560.308 85.2213 501.296 48.9726 410.033 21.1025C309.264 -9.64066 207.111 -10.3585 140.366 47.912C73.1417 109.261 68.2647 127.012 0 144.688V129.234C3.10235 128.137 5.90441 127.077 8.45769 126.018C43.3202 111.421 64.6831 92.5401 85.5397 71.5771C116.207 39.9469 144.012 14.5713 184.418 0H383.922C453.102 16.2791 524.837 45.1095 570.717 70.4502C614.95 94.8323 635.02 135.593 660.516 148.243C693.561 164.661 749.356 141.134 781.9 130.466C894.343 93.6356 1000.58 60.3935 1135.34 78.3839C1220.46 90.8654 1303.03 117.709 1395.08 131.287C1499.31 146.094 1588.63 146.436 1676 128.208ZM1676 168.563V182.17C1599.76 188.978 1522.61 187.028 1432.14 169.891C1358.15 155.876 1288.24 140.041 1215.47 124.584C1107.41 101.811 1050.34 101.497 944.965 127.97C702.192 196.195 739.978 317.187 679.567 331.341C620.724 340.95 581.729 290.953 566.58 266.3C528.548 199.58 525.262 119.047 418.358 69.7315C343.159 34.9874 257.672 33.9617 199.268 80.7075C121.012 145.786 111.887 156.763 0 175.676V165.722C64.4335 152.626 106.478 136.347 151.32 96.3377C207.902 43.6704 260.109 9.03011 375.837 38.5443C482.423 67.3713 528.548 124.344 555.32 185.113C569.015 216.2 614.581 344.507 695.198 267.256C748.804 215.924 756.464 190.891 844.207 151.636C928.289 114.051 1027.28 92.0944 1135.4 103.826C1298.89 125.23 1446.44 186.239 1626.41 173.28C1643.2 172.051 1659.69 170.472 1676 168.563ZM1676 207.924V223.482C1589.54 226.456 1527.05 216.608 1399.04 184.702C1347.87 171.949 1292.87 160.934 1240.36 149.855C1129.02 126.464 1066.04 122.427 958.406 153.892C838.852 190.272 792.792 250.943 813.358 324.673C826.321 369.128 844.511 419.432 729.634 416.559C574.733 402.708 532.929 315.606 501.595 242.734C482.912 199.167 428.335 82.9988 314.566 98.2147C256.217 106.012 214.96 150.3 154.67 169.999C106.903 185.624 54.7572 194.103 0 201.084V191.748L2.31672 191.403C111.039 176.422 153.025 165.108 223.11 115.351C293.693 64.5348 361.114 65.3189 432.356 115.83C535.79 192.706 496.059 306.994 630.581 374.188C684.494 401.135 773.081 408.457 780.688 353.876L781.289 347.003C782.141 296.083 770.713 264.313 817.735 216.914C886.062 151.221 1020.65 111.863 1155.42 128.687C1266.77 143.394 1374.16 174.274 1481.05 195.44C1545.73 208.23 1610.84 210.757 1676 207.924ZM1676 257.678V278.266C1594.11 277.614 1539.34 255.323 1464.08 230.323C1372.82 200.025 1293.96 176.361 1189.49 161.31C1102.85 148.866 1044.14 156.317 970.335 184.261C883.818 219.994 870.61 268.626 912.655 322.86C943.318 362.424 980.68 403.426 908.272 439.502C785.921 489.126 636.852 457.322 557.873 391.592C464.419 313.833 490.823 278.813 431.256 207.203C396.151 165.005 362.93 146.128 284.265 173.21C189.585 205.834 94.7333 214.386 0 222.731V214.522C104.526 204.399 176.876 197.591 272.584 155.631C364.334 115.417 410.45 150.473 446.35 199.953C504.45 279.975 481.025 340.502 608.807 411.461C653.28 436.189 693.561 444.597 754.463 449.421C796.072 451.78 827.407 447.78 863.008 435.641C964.92 397.475 868.176 335.476 860.938 284.012C854.488 212.777 944.166 166.578 1060.75 151.053C1180 137.406 1340.5 181.691 1443.33 213.872C1523.34 238.936 1592.95 256.382 1676 257.678ZM1676 320.088V339.888C1547.25 356.781 1536.42 309.112 1453.31 266.5C1368.01 222.764 1292.32 193.971 1174.65 184.771C1166.56 184.115 1159.92 183.881 1151.83 183.637C1058.62 182.578 968.022 218.249 991.023 275.32C993.822 282.267 997.347 287.463 1001.79 294.061C1045.41 352.814 1088.01 400.551 993.21 455.337C906.452 505.436 779.106 505.164 669.522 481.875C534.448 451.812 462.104 346.422 410.33 276.383C364.151 214.005 318.101 224.849 210.638 233.636C138.913 239.518 69.4877 241.365 0 245.295V237.295C72.1597 232.475 140.124 229.843 218.548 219.239C273.857 211.784 350.586 194.14 392.445 221.944C427.308 245.059 449.576 312.291 479.691 346.866C518.211 391.187 581.117 448.808 663.199 469.87C691.303 477.055 716.622 480.508 746.788 483.587C757.815 484.611 767.975 485.229 779.039 485.844C863.43 488.99 950.377 473.499 996.435 430.719C1034.65 395.188 1015.72 357.637 986.638 322.72C949.647 279.907 922.512 240.892 998.013 202.791C1096.1 158.647 1197.4 171.125 1304.55 198.108C1414.19 225.669 1464.63 258.738 1551.39 300.013C1600.25 323.268 1632.74 324.979 1676 320.088ZM1676 378.051V397.749C1575 415.878 1530.22 403.121 1470.77 348.849C1415.65 298.511 1356.93 240.994 1244.98 225.501C1152.62 212.711 1099.75 233.196 1112.47 288.251C1123.9 337.731 1139.54 357.429 1118.92 409.581C1081.68 503.965 900.548 535.051 748.375 522.327L736.879 521.37C542.054 500.679 524.596 439.401 418.667 358.934C311.829 277.753 296.121 277.651 120.227 271.837C82.8712 270.571 41.7935 269.853 0 270.877V260.997C103.191 257.645 264.061 258.292 315.65 270.233C365.667 281.824 388.725 315.504 417.323 340.711C469.228 386.467 548.995 469.805 634.966 493.435C668.004 502.532 705.179 507.558 741.013 511.934C864.04 523.492 993.575 508.103 1067.62 446.722C1123.48 400.45 1102 344.643 1077.3 294.991C1056.18 252.483 1062.27 216.473 1153.47 208.536C1234.34 201.493 1320.61 225.397 1377.74 256.346C1426.96 283.016 1451.73 303.641 1487.02 335.548C1543.24 386.364 1586.92 394.194 1676 378.051ZM1676 438.821V458.072C1593.13 480.471 1568.18 477.803 1489.21 430.408C1430.86 395.392 1403.9 360.781 1355.78 324.705C1307.59 288.659 1241.82 273.41 1217.79 330.003C1207.26 354.797 1205.8 382.053 1194.85 409.103C1166.01 480.094 1102.85 511.218 985.424 537.785C919.597 552.662 855.223 555.638 785.01 552.901L773.319 552.356C592.248 538.539 554.1 514.087 451.033 432.87C346.082 350.18 242.706 314.649 63.9996 304.325C43.4957 303.161 21.8378 302.65 0 303.022V289.995C36.446 289.583 72.2243 291.188 104.165 293.959C338.958 314.373 380.456 359.244 507.319 461.73C574.489 516.006 624.074 527.118 735.658 538.878C867.141 550.68 988.65 539.122 1090.87 488.306C1201.72 433.18 1166.25 371.932 1189.01 299.534C1211.89 226.628 1319.64 274.125 1367.89 308.564C1430.86 353.599 1472.48 424.632 1577.62 445.117C1610.71 451.541 1643.94 446.655 1676 438.821ZM1676 498.836V519.049C1626.11 537.682 1558.82 558.649 1516.77 534.026C1493.59 520.38 1463.66 487.724 1437.61 468.984C1418.81 455.476 1351.83 406.198 1317.63 416.488C1280.76 427.535 1255.02 473.704 1219.67 495.109C1145.26 540.215 1003.68 575.543 895.129 579.746C849.012 581.526 804.355 579.951 758.482 577.453C689.421 573.457 609.041 564.053 551.972 540.936L544.309 537.82C408.378 479.889 404.667 420.934 217.763 373.745C159.835 359.071 74.2948 344.507 0 348.473V331.032C45.6981 329.221 93.5147 332.911 134.343 339.339C269.233 360.58 349.55 393.302 434.484 455.132C532.136 526.228 581.18 552.32 743.873 567.539C888.073 579.405 994.488 565.692 1117.76 522.639C1272.79 468.504 1235.01 395.525 1293.9 372.615C1331.5 357.944 1386.99 405.103 1407.8 420.046C1440.11 443.232 1513.67 505.164 1557.23 516.21C1593.37 525.407 1637.24 512.55 1676 498.836ZM1676 555.331V572.191C1640.71 583.923 1604.02 595.34 1593.74 597.975C1538.07 612.271 1432.93 634.36 1397.64 592.813C1370.69 561.145 1372.33 532.283 1287.27 544.594C1208.24 556.017 1150.8 574.485 1078.76 593.086C971.796 620.786 924.034 616.135 810.371 611.006C724.407 607.211 620.237 597.052 544.673 572.806C392.445 521.58 269.536 397.067 67.9574 413.614C41.0087 415.841 18.6176 420.422 0 426.475V394.057C135.018 368.171 292.417 426.611 383.377 478.079C492.351 539.736 516.681 565.251 675.544 587.749C799.24 604.336 947.819 613.262 1065.49 580.945C1141.98 559.943 1215.84 537.715 1289.46 513.782C1374.34 486.217 1391.98 504.411 1428.18 550.851C1464.44 597.459 1491.58 601.973 1576.46 584.536C1616.92 576.261 1646.67 566.377 1676 555.331ZM1676 602.287V617.086C1569.77 650.127 1454.89 676.595 1332.41 680.903C1217.42 684.94 1253.81 627.176 1075.41 655.082C1045.54 659.767 1030.69 662.092 999.054 662.195C941.495 660.966 848.345 651.355 789.325 645.854C719.11 639.319 654.373 629.673 587.387 616.236C462.653 590.825 367.003 524.109 253.65 489.947C165.559 463.409 92.97 470.455 44.5397 521.408C25.4918 541.414 13.813 555.742 0 568.909V511.491C21.4746 494.05 43.6231 477.189 56.2743 471.172C166.165 418.781 326.671 498.939 409.722 539.294C514.193 590.041 580.387 609.021 715.456 625.159C780.93 632.618 853.759 636 921.112 641.575C1060.02 652.481 1060.63 625.779 1174.22 611.244C1320.55 592.503 1240.97 693.348 1504.3 646.362C1564.6 635.592 1621.24 619.862 1676 602.287ZM1676 644.074V657.31C1570.62 687.641 1480.99 707.372 1366.61 731.994C1197.22 768.447 1194.24 774.402 1019.8 737.876C938.817 720.946 875.24 702.89 790.476 688.974C691.613 672.732 579.96 656.659 491.682 626.155C419.332 600.301 255.602 516.856 172.305 532.794C81.8359 550.131 107.263 659.255 0 705.454V664.864C97.4184 613.499 55.8571 523.429 168.419 513.475C267.597 504.685 429.803 592.469 519.968 620.922C642.996 658.161 783.362 666.712 911.315 692.29C998.749 709.389 1078.94 717.083 1168.81 727.548C1261.66 738.355 1366.24 713.529 1454.59 697.283C1540.26 681.484 1605.24 665.309 1676 644.074ZM1676 682.92V695.641C1565.15 726.867 1452.82 757.54 1355.29 800.696C1266.52 839.987 1211.52 845.801 1102.3 826.413C1083.32 823.06 1065.07 819.23 1046.51 815.23C962.117 796.799 877.423 767.594 793.889 745.228C712.969 723.548 629.664 701.317 548.144 680.495C457.608 657.441 341.213 594.725 251.164 591.203C180.04 588.4 162.155 641.269 143.169 671.943C109.698 726.111 71.6106 770.225 0 791.974V765.816C9.55756 762.323 19.2199 758.122 28.904 752.956C128.069 700.085 136.409 599.138 188.313 576.974C257.002 547.702 416.169 624.203 475.859 645.439C537.251 667.33 627.294 686 696.167 702.242C789.689 724.228 862.032 740.647 952.264 768.245C1060.32 801.071 1186.09 834.346 1302.3 794.198C1355.84 775.696 1395.21 760.854 1452.58 744.305C1527.48 722.76 1601.1 704.295 1676 682.92ZM1676 722.009V735.687C1591 761.61 1508.25 794.131 1450.33 834.895C1375.43 887.555 1310.63 903.595 1190.29 892.378C1160.35 889.575 1131.88 885.436 1102.73 880.821C942.773 854.967 798.507 806.031 660.397 755.144C614.699 738.321 573.148 723.993 523.436 711C465.207 696.153 412.098 674.607 358.611 661.718C242.158 633.608 213.561 696.601 177.606 744.2C127.886 810.067 91.9303 852.093 0 863.96V841.389C53.9707 832.255 87.7325 809.824 128.135 767.559C162.334 731.858 180.944 690.786 212.458 658.228C246.776 622.903 297.164 629.06 353.928 643.421C412.586 658.265 467.223 682.951 528.547 699.503C736.935 756.443 952.202 852.229 1183.96 874.012C1374.09 890.938 1374.58 831.162 1504.05 779.698C1551.39 760.888 1614.24 740.371 1676 722.009ZM1676 766.876V785.579C1626.04 806.51 1581.63 832.157 1554.31 855.717C1497.42 904.687 1456.17 930.099 1346.22 938.68C1336.13 939.467 1326.39 939.978 1316.23 940.423C1137.59 947.195 872.313 891.896 729.634 834.515C611.594 787.051 547.78 747.929 400.114 724.504C308.233 710.654 278.542 742.254 241.486 784.864C203.404 828.566 180.098 884.375 100.941 908.142L78.305 913.989C53.7874 919.291 27.0753 921.716 0 922.161V903.87C165.496 896.583 173.399 808.322 256.462 729.088C304.454 683.331 356.728 694.922 431.988 713.832C535.3 739.822 576.008 752.273 667.939 790.024C823.153 853.837 931.698 887.009 1121.29 913.511C1263.11 933.006 1406.34 942.304 1499.31 864.883C1550.54 822.172 1578.83 803.465 1656.35 774.054C1662.49 771.734 1669.06 769.337 1676 766.876ZM1676 829.011V859.243C1665.53 866.253 1656.1 873.192 1647.95 879.687C1628.23 895.421 1611.87 907.903 1587.59 921.683C1573.48 929.348 1558.51 936.081 1542.99 941.998H1490.55C1514.46 934.82 1536.79 925.856 1556.99 914.813C1611.87 883.353 1627.14 856.745 1676 829.011ZM1676 918.097V940.973L1673.87 942H1629.58C1645.09 934.854 1660.54 926.883 1676 918.097ZM1021.38 941.999H927.197C853.087 928.899 778.802 911.668 724.098 889.508C645.066 857.498 604.545 826.957 511.271 801.037C338.905 757.094 320.457 842.893 238.201 906.023C218.122 920.796 197.316 932.664 175.6 941.998H119.124C190.985 922.61 233.156 882.733 277.445 830.172C332.267 765.025 381 749.434 502.02 779.426C648.777 817.213 708.096 881.125 884.121 916.862C925.009 925.171 971.611 934.065 1021.38 941.999ZM755.921 941.999H686.196C648.474 926.611 623.89 908.455 555.987 884.272C433.823 840.774 375.464 896.276 298.321 941.999H256.086C331.665 899.425 377.779 848.262 439.837 840.091C538.286 827.098 654.799 911.598 739.863 937.62C744.843 939.092 750.266 940.561 755.921 941.999ZM557.754 941.999H405.584C472.391 919.293 508.772 924.079 557.754 941.999ZM0 87.96V56.499C23.361 35.2255 43.013 16.1099 64.5007 0H101.424C70.4557 20.4143 47.6403 47.0921 16.1839 75.7498C11.1341 80.0586 5.7211 84.1284 0 87.96Z" fill="#03040A"/>
<path opacity="0.95" d="M1676 0H0V946.061H1676V0Z" fill="black"/>
</svg>
