<svg width="69" height="69" viewBox="0 0 69 69" fill="none" xmlns="http://www.w3.org/2000/svg">
<g filter="url(#filter0_i_2018_93)">
<rect width="68.7587" height="68.7587" rx="20" fill="#402BC9"/>
</g>
<path d="M18.2575 45.7718L16.6787 44.8599L34.2681 14.3965L35.8458 15.308L18.2575 45.7718Z" fill="white"/>
<path d="M16.3164 42.4258H51.4938V44.2482H16.3164V42.4258Z" fill="white"/>
<path d="M34.6072 53.6086L17.0127 43.4504L17.9243 41.8709L35.5191 52.0305L34.6072 53.6086ZM49.892 27.1319L32.2974 16.9723L33.209 15.3945L50.8039 25.5524L49.892 27.1319Z" fill="white"/>
<path d="M17.9295 27.125L17.0176 25.5459L34.6138 15.3877L35.5254 16.9658L17.9295 27.125Z" fill="white"/>
<path d="M49.5678 45.7718L31.9798 15.308L33.5579 14.3965L51.1472 44.8599L49.5678 45.7718ZM17.7109 24.3371H19.5344V44.6564H17.7113L17.7109 24.3371Z" fill="white"/>
<path d="M48.2871 24.3369H50.1102V44.6562H48.2871V24.3369Z" fill="white"/>
<path d="M34.2982 52.8367L33.502 51.457L48.8042 42.6211L49.6004 44.0008L34.2982 52.8367Z" fill="white"/>
<path d="M52.5258 45.2482C51.4721 47.0823 49.1219 47.7083 47.2881 46.6547C45.454 45.5996 44.828 43.2493 45.8816 41.4152C46.9367 39.5811 49.2869 38.9551 51.121 40.0091C52.9658 41.0748 53.5918 43.4141 52.5258 45.2482M21.9295 27.5771C20.8745 29.4112 18.5242 30.0372 16.6901 28.9832C14.856 27.9282 14.23 25.5783 15.284 23.7442C16.339 21.9101 18.689 21.2841 20.5231 22.3377C22.3572 23.4037 22.9832 25.743 21.9295 27.5771ZM15.296 45.2482C14.2407 43.4141 14.867 41.0748 16.7008 40.0088C18.5349 38.9551 20.8742 39.5811 21.9402 41.4152C22.9938 43.2493 22.3678 45.5886 20.5337 46.6547C18.689 47.7083 16.3497 47.0823 15.296 45.2482M45.8923 27.5771C44.8386 25.743 45.4646 23.4037 47.2987 22.3377C49.1328 21.2841 51.4721 21.9101 52.5378 23.7442C53.5915 25.5783 52.9658 27.9176 51.1317 28.9836C49.2976 30.0372 46.9473 29.4112 45.8923 27.5771ZM33.9109 56.0002C33.4074 56.0006 32.9088 55.9018 32.4436 55.7093C31.9783 55.5169 31.5556 55.2346 31.1996 54.8786C30.8436 54.5225 30.5613 54.0998 30.3688 53.6346C30.1764 53.1693 30.0775 52.6707 30.078 52.1672C30.0775 51.6638 30.1764 51.1651 30.3688 50.6999C30.5613 50.2347 30.8436 49.812 31.1996 49.4559C31.5556 49.0999 31.9783 48.8176 32.4436 48.6252C32.9088 48.4327 33.4074 48.3339 33.9109 48.3343C34.4144 48.3339 34.913 48.4327 35.3782 48.6252C35.8435 48.8176 36.2662 49.0999 36.6222 49.4559C36.9782 49.812 37.2605 50.2347 37.453 50.6999C37.6455 51.1651 37.7443 51.6638 37.7439 52.1672C37.7439 54.2763 36.0306 56.0002 33.9109 56.0002ZM33.9109 20.6581C33.4074 20.6585 32.9088 20.5597 32.4436 20.3672C31.9783 20.1748 31.5556 19.8924 31.1996 19.5364C30.8436 19.1804 30.5613 18.7577 30.3688 18.2925C30.1764 17.8272 30.0775 17.3286 30.078 16.8251C30.0775 16.3217 30.1764 15.823 30.3688 15.3578C30.5613 14.8926 30.8436 14.4698 31.1996 14.1138C31.5556 13.7578 31.9783 13.4755 32.4436 13.283C32.9088 13.0906 33.4074 12.9917 33.9109 12.9922C34.4144 12.9917 34.913 13.0906 35.3782 13.283C35.8435 13.4755 36.2662 13.7578 36.6222 14.1138C36.9782 14.4698 37.2605 14.8926 37.453 15.3578C37.6455 15.823 37.7443 16.3217 37.7439 16.8251C37.7443 17.3286 37.6455 17.8272 37.453 18.2925C37.2605 18.7577 36.9782 19.1804 36.6222 19.5364C36.2662 19.8924 35.8435 20.1748 35.3782 20.3672C34.913 20.5597 34.4144 20.6585 33.9109 20.6581" fill="white"/>
<defs>
<filter id="filter0_i_2018_93" x="0" y="0" width="68.7588" height="70.7588" filterUnits="userSpaceOnUse" color-interpolation-filters="sRGB">
<feFlood flood-opacity="0" result="BackgroundImageFix"/>
<feBlend mode="normal" in="SourceGraphic" in2="BackgroundImageFix" result="shape"/>
<feColorMatrix in="SourceAlpha" type="matrix" values="0 0 0 0 0 0 0 0 0 0 0 0 0 0 0 0 0 0 127 0" result="hardAlpha"/>
<feMorphology radius="1" operator="erode" in="SourceAlpha" result="effect1_innerShadow_2018_93"/>
<feOffset dy="2"/>
<feGaussianBlur stdDeviation="3"/>
<feComposite in2="hardAlpha" operator="arithmetic" k2="-1" k3="1"/>
<feColorMatrix type="matrix" values="0 0 0 0 1 0 0 0 0 1 0 0 0 0 1 0 0 0 0.6 0"/>
<feBlend mode="normal" in2="shape" result="effect1_innerShadow_2018_93"/>
</filter>
</defs>
</svg>
