<svg width="69" height="69" viewBox="0 0 69 69" fill="none" xmlns="http://www.w3.org/2000/svg">
<g filter="url(#filter0_i_2017_66)">
<rect width="68.7587" height="68.7587" rx="20" fill="#402BC9"/>
</g>
<path d="M22.3365 49.0443C21.5339 48.8215 20.9534 48.1245 20.8794 47.2948L18.1942 17.1776C18.0898 16.0076 19.0116 15 20.1863 15H48.8036C49.9784 15 50.9001 16.0077 50.7957 17.1778L48.1076 47.2894C48.0335 48.1193 47.4527 48.8163 46.6498 49.0389L35.0096 52.2657C34.6598 52.3627 34.2901 52.3626 33.9403 52.2655L22.3365 49.0443Z" fill="white"/>
<path d="M34.4961 49.5511L45.4126 46.5244L47.981 17.7529H34.4961V49.5511Z" fill="white"/>
<path d="M34.4959 30.2429H29.0307L28.6532 26.0136H34.4959V21.8838H24.1396L24.2387 22.9917L25.2536 34.373H34.4959V30.2429ZM34.4959 40.9689L34.4776 40.974L29.8782 39.7316L29.5844 36.4382H25.4381L26.0167 42.9227L34.477 45.2712L34.4959 45.2661V40.9689Z" fill="#402BC9"/>
<path d="M34.4805 30.2429V34.373H39.566L39.0868 39.7292L34.4805 40.9725V45.2694L42.9474 42.9227L43.0095 42.225L43.9799 31.3521L44.0805 30.2429H42.9678H34.4805ZM34.4805 21.8838V26.0136H44.4565L44.5393 25.0857L44.7278 22.9917L44.8265 21.8838H34.4805Z" fill="#402BC9"/>
<defs>
<filter id="filter0_i_2017_66" x="0" y="0" width="68.7588" height="70.7588" filterUnits="userSpaceOnUse" color-interpolation-filters="sRGB">
<feFlood flood-opacity="0" result="BackgroundImageFix"/>
<feBlend mode="normal" in="SourceGraphic" in2="BackgroundImageFix" result="shape"/>
<feColorMatrix in="SourceAlpha" type="matrix" values="0 0 0 0 0 0 0 0 0 0 0 0 0 0 0 0 0 0 127 0" result="hardAlpha"/>
<feMorphology radius="1" operator="erode" in="SourceAlpha" result="effect1_innerShadow_2017_66"/>
<feOffset dy="2"/>
<feGaussianBlur stdDeviation="3"/>
<feComposite in2="hardAlpha" operator="arithmetic" k2="-1" k3="1"/>
<feColorMatrix type="matrix" values="0 0 0 0 1 0 0 0 0 1 0 0 0 0 1 0 0 0 0.6 0"/>
<feBlend mode="normal" in2="shape" result="effect1_innerShadow_2017_66"/>
</filter>
</defs>
</svg>
