<svg width="69" height="69" viewBox="0 0 69 69" fill="none" xmlns="http://www.w3.org/2000/svg">
<g filter="url(#filter0_i_2018_78)">
<path d="M0 20C0 8.95429 8.9543 0 20 0H48.7587C59.8044 0 68.7587 8.9543 68.7587 20V48.7587C68.7587 59.8044 59.8044 68.7587 48.7587 68.7587H20C8.95429 68.7587 0 59.8044 0 48.7587V20Z" fill="#402BC9"/>
</g>
<path d="M28.2509 45.2937C28.2509 45.2937 26.6154 46.2454 29.4163 46.5665C32.8101 46.9542 34.5444 46.8986 38.2833 46.1919C38.2833 46.1919 39.2683 46.8077 40.6414 47.3416C32.2567 50.9337 21.6661 47.1333 28.2509 45.2937ZM27.2258 40.6055C27.2258 40.6055 25.391 41.9637 28.1943 42.254C31.8196 42.6283 34.682 42.6588 39.6375 41.7051C39.6375 41.7051 40.3213 42.3998 41.3982 42.7792C31.2628 45.7435 19.974 43.0125 27.2258 40.6055V40.6055Z" fill="white"/>
<path d="M35.8611 32.6518C37.9281 35.0311 35.319 37.1703 35.319 37.1703C35.319 37.1703 40.5644 34.463 38.1559 31.0713C35.9057 27.9097 34.1806 26.3395 43.5201 20.9229C43.5201 20.9232 28.8598 24.5836 35.8611 32.6518V32.6518Z" fill="white"/>
<path d="M46.9508 48.7623C46.9508 48.7623 48.1616 49.7607 45.6169 50.5323C40.7788 51.9979 25.4759 52.4398 21.2258 50.5909C19.6987 49.926 22.5634 49.0042 23.4647 48.8096C24.4044 48.6062 24.941 48.6432 24.941 48.6432C23.2417 47.4469 13.9579 50.9934 20.226 52.0106C37.3188 54.7813 51.3838 50.7628 46.9508 48.7623V48.7623ZM29.0381 35.7474C29.0381 35.7474 21.2549 37.5963 26.2821 38.2684C28.4051 38.5525 32.6353 38.4873 36.5784 38.1565C39.8 37.8859 43.0328 37.3078 43.0328 37.3078C43.0328 37.3078 41.8979 37.7946 41.0759 38.3552C33.1706 40.4346 17.9026 39.4661 22.2986 37.3403C26.0149 35.5429 29.0381 35.7474 29.0381 35.7474V35.7474ZM43.0006 43.5515C51.0359 39.3772 47.3203 35.3656 44.727 35.9059C44.093 36.038 43.8085 36.1529 43.8085 36.1529C43.8085 36.1529 44.0446 35.7827 44.4947 35.6236C49.6248 33.8207 53.5696 40.9424 42.84 43.7632C42.84 43.7625 42.9632 43.651 43.0006 43.5515V43.5515Z" fill="white"/>
<path d="M38.1567 12.1748C38.1567 12.1748 42.6058 16.6267 33.9357 23.4701C26.9828 28.9615 32.3503 32.0918 33.9333 35.6699C29.8743 32.0081 26.897 28.7842 28.8941 25.7839C31.8268 21.3808 39.9513 19.2451 38.1567 12.1748Z" fill="white"/>
<path d="M29.8278 54.8659C37.539 55.3589 49.3836 54.5914 49.6639 50.9424C49.6639 50.9424 49.1249 52.3257 43.2904 53.4232C36.708 54.6624 28.5879 54.518 23.7734 53.7231C23.7734 53.7234 24.7598 54.54 29.8278 54.8659V54.8659Z" fill="white"/>
<defs>
<filter id="filter0_i_2018_78" x="0" y="0" width="68.7588" height="70.7588" filterUnits="userSpaceOnUse" color-interpolation-filters="sRGB">
<feFlood flood-opacity="0" result="BackgroundImageFix"/>
<feBlend mode="normal" in="SourceGraphic" in2="BackgroundImageFix" result="shape"/>
<feColorMatrix in="SourceAlpha" type="matrix" values="0 0 0 0 0 0 0 0 0 0 0 0 0 0 0 0 0 0 127 0" result="hardAlpha"/>
<feOffset dy="2"/>
<feGaussianBlur stdDeviation="3"/>
<feComposite in2="hardAlpha" operator="arithmetic" k2="-1" k3="1"/>
<feColorMatrix type="matrix" values="0 0 0 0 1 0 0 0 0 1 0 0 0 0 1 0 0 0 0.6 0"/>
<feBlend mode="normal" in2="shape" result="effect1_innerShadow_2018_78"/>
</filter>
</defs>
</svg>
