<svg width="69" height="69" viewBox="0 0 69 69" fill="none" xmlns="http://www.w3.org/2000/svg">
<g filter="url(#filter0_i_2009_36)">
<rect width="68.7587" height="68.7587" rx="20" fill="#402BC9"/>
</g>
<path d="M54.3206 38.3189C53.8773 35.6292 52.0774 33.37 46.7456 31.2634C44.8934 30.434 42.8286 29.8401 42.2133 28.4724C41.9948 27.6765 41.9658 27.2281 42.104 26.7463C42.5009 25.1827 44.4164 24.6952 45.9345 25.1436C46.9123 25.4629 47.838 26.1972 48.3962 27.3685C51.0072 25.721 51.0019 25.7318 52.8251 24.5996C52.1576 23.5913 51.8014 23.126 51.3644 22.6946C49.794 20.9854 47.6543 20.1052 44.2322 20.1725L42.4496 20.3972C40.7415 20.8178 39.1136 21.6914 38.159 22.8627C35.2947 26.0295 36.1115 31.5718 39.5969 33.8527C43.0306 36.3639 48.0748 36.9352 48.7191 39.2835C49.346 42.1583 46.5508 43.0889 43.7725 42.7583C41.7251 42.3434 40.5863 41.3294 39.3553 39.4855C37.0893 40.7633 37.0893 40.7633 34.7596 42.0688C35.3121 43.2457 35.8926 43.7784 36.8187 44.798C41.2016 49.13 52.1697 48.9171 54.1369 42.3603C54.2166 42.1352 54.7464 40.6337 54.3206 38.3189ZM31.659 20.5196H25.9995L25.9763 34.7768C25.9763 37.8089 26.1372 40.5885 25.6312 41.4405C24.8032 43.1162 22.6577 42.9085 21.6798 42.5835C20.6846 42.1069 20.1786 41.4292 19.5923 40.4713C19.4313 40.1962 19.3105 39.9833 19.2699 39.9668L14.6685 42.7126C15.4336 44.2428 16.5607 45.5709 18.0045 46.4337C20.1612 47.695 23.0598 48.0816 26.0913 47.4034C28.0643 46.8435 29.7667 45.6835 30.658 43.9178C31.9466 41.603 31.6701 38.8012 31.6585 35.7022C31.6875 30.6464 31.659 25.5915 31.659 20.5196Z" fill="white"/>
<defs>
<filter id="filter0_i_2009_36" x="0" y="0" width="68.7588" height="70.7588" filterUnits="userSpaceOnUse" color-interpolation-filters="sRGB">
<feFlood flood-opacity="0" result="BackgroundImageFix"/>
<feBlend mode="normal" in="SourceGraphic" in2="BackgroundImageFix" result="shape"/>
<feColorMatrix in="SourceAlpha" type="matrix" values="0 0 0 0 0 0 0 0 0 0 0 0 0 0 0 0 0 0 127 0" result="hardAlpha"/>
<feMorphology radius="1" operator="erode" in="SourceAlpha" result="effect1_innerShadow_2009_36"/>
<feOffset dy="2"/>
<feGaussianBlur stdDeviation="3"/>
<feComposite in2="hardAlpha" operator="arithmetic" k2="-1" k3="1"/>
<feColorMatrix type="matrix" values="0 0 0 0 1 0 0 0 0 1 0 0 0 0 1 0 0 0 0.6 0"/>
<feBlend mode="normal" in2="shape" result="effect1_innerShadow_2009_36"/>
</filter>
</defs>
</svg>
