<svg width="728" height="619" viewBox="0 0 728 619" fill="none" xmlns="http://www.w3.org/2000/svg">
<mask id="mask0_2620_367" style="mask-type:luminance" maskUnits="userSpaceOnUse" x="288" y="274" width="142" height="173">
<path d="M427.782 282.155L419.57 275.678C417.694 274.199 414.975 274.52 413.497 276.395L289.678 433.385C288.199 435.26 288.52 437.979 290.395 439.458L298.608 445.935C300.483 447.414 303.202 447.093 304.681 445.218L428.499 288.228C429.978 286.353 429.657 283.634 427.782 282.155Z" fill="white"/>
</mask>
<g mask="url(#mask0_2620_367)">
<path d="M427.782 282.155L419.57 275.678C417.694 274.199 414.975 274.52 413.497 276.395L289.678 433.385C288.199 435.26 288.52 437.979 290.395 439.458L298.608 445.935C300.483 447.414 303.202 447.093 304.681 445.218L428.499 288.228C429.978 286.353 429.657 283.634 427.782 282.155Z" fill="#06040B"/>
<path d="M368.92 324.885L383.923 336.718L314.198 427.788L285.5 427.788L368.92 324.885Z" fill="url(#paint0_linear_2620_367)"/>
<path d="M396.456 298.003L411.459 309.836L390.259 336.716L375.256 324.884L396.456 298.003Z" fill="#402BC9"/>
<g filter="url(#filter0_i_2620_367)">
<path d="M416.174 273L431.177 284.833L392.721 333.592L377.718 321.759L416.174 273Z" fill="url(#paint1_linear_2620_367)"/>
</g>
</g>
<g filter="url(#filter1_f_2620_367)">
<g filter="url(#filter2_d_2620_367)">
<path d="M395.805 317.162C431.137 345.028 482.37 338.976 510.237 303.644C538.103 268.312 532.051 217.079 496.719 189.212C461.387 161.345 410.154 167.397 382.287 202.73C354.42 238.062 360.472 289.295 395.805 317.162Z" fill="url(#paint2_linear_2620_367)" fill-opacity="0.62" shape-rendering="crispEdges"/>
</g>
</g>
<path d="M403.615 427.493H1.00001V618.351H599.074C599.074 606.235 594.966 594.844 588.012 587.674L456.006 451.598C440.814 435.937 422.461 427.493 403.615 427.493Z" stroke="url(#paint3_linear_2620_367)" stroke-width="0.75"/>
<defs>
<filter id="filter0_i_2620_367" x="377.718" y="273" width="55.709" height="62.8416" filterUnits="userSpaceOnUse" color-interpolation-filters="sRGB">
<feFlood flood-opacity="0" result="BackgroundImageFix"/>
<feBlend mode="normal" in="SourceGraphic" in2="BackgroundImageFix" result="shape"/>
<feColorMatrix in="SourceAlpha" type="matrix" values="0 0 0 0 0 0 0 0 0 0 0 0 0 0 0 0 0 0 127 0" result="hardAlpha"/>
<feOffset dx="2.25" dy="2.25"/>
<feGaussianBlur stdDeviation="2.025"/>
<feComposite in2="hardAlpha" operator="arithmetic" k2="-1" k3="1"/>
<feColorMatrix type="matrix" values="0 0 0 0 1 0 0 0 0 1 0 0 0 0 1 0 0 0 0.5 0"/>
<feBlend mode="normal" in2="shape" result="effect1_innerShadow_2620_367"/>
</filter>
<filter id="filter1_f_2620_367" x="164.78" y="-28.2947" width="562.963" height="562.963" filterUnits="userSpaceOnUse" color-interpolation-filters="sRGB">
<feFlood flood-opacity="0" result="BackgroundImageFix"/>
<feBlend mode="normal" in="SourceGraphic" in2="BackgroundImageFix" result="shape"/>
<feGaussianBlur stdDeviation="100" result="effect1_foregroundBlur_2620_367"/>
</filter>
<filter id="filter2_d_2620_367" x="364.78" y="171.705" width="162.963" height="166.963" filterUnits="userSpaceOnUse" color-interpolation-filters="sRGB">
<feFlood flood-opacity="0" result="BackgroundImageFix"/>
<feColorMatrix in="SourceAlpha" type="matrix" values="0 0 0 0 0 0 0 0 0 0 0 0 0 0 0 0 0 0 127 0" result="hardAlpha"/>
<feOffset dy="4"/>
<feComposite in2="hardAlpha" operator="out"/>
<feColorMatrix type="matrix" values="0 0 0 0 0 0 0 0 0 0 0 0 0 0 0 0 0 0 0.25 0"/>
<feBlend mode="normal" in2="BackgroundImageFix" result="effect1_dropShadow_2620_367"/>
<feBlend mode="normal" in="SourceGraphic" in2="effect1_dropShadow_2620_367" result="shape"/>
</filter>
<linearGradient id="paint0_linear_2620_367" x1="322.1" y1="370.29" x2="357.864" y2="392.712" gradientUnits="userSpaceOnUse">
<stop stop-color="#2B4280" stop-opacity="0.105882"/>
<stop offset="0.359" stop-color="#0A0713"/>
<stop offset="0.609" stop-color="#0A0713"/>
<stop offset="1" stop-color="#2B4280"/>
</linearGradient>
<linearGradient id="paint1_linear_2620_367" x1="396.445" y1="296.985" x2="411.948" y2="309.213" gradientUnits="userSpaceOnUse">
<stop stop-color="#402BC9"/>
<stop offset="0.377" stop-color="#B9A6FF"/>
<stop offset="0.761" stop-color="#6F5CEA"/>
<stop offset="0.914" stop-color="#6F5CEA"/>
</linearGradient>
<linearGradient id="paint2_linear_2620_367" x1="496.719" y1="189.212" x2="395.805" y2="317.162" gradientUnits="userSpaceOnUse">
<stop stop-color="#402BC9"/>
<stop offset="1" stop-color="#402BC9"/>
</linearGradient>
<linearGradient id="paint3_linear_2620_367" x1="234.298" y1="617.729" x2="234.298" y2="427.493" gradientUnits="userSpaceOnUse">
<stop stop-color="#000A4D" stop-opacity="0"/>
<stop offset="1" stop-color="#581CC9" stop-opacity="0.8"/>
</linearGradient>
</defs>
</svg>
