<svg width="69" height="69" viewBox="0 0 69 69" fill="none" xmlns="http://www.w3.org/2000/svg">
<g filter="url(#filter0_i_2008_88)">
<rect width="68.7587" height="68.7587" rx="20" fill="#402BC9"/>
</g>
<path d="M57.1062 56.5912L56.14 55.6565C55.2244 54.4436 54.0466 53.3781 52.8104 52.4935C51.8247 51.7876 49.6116 50.8341 49.2001 49.6902L49.1244 49.6183C49.8236 49.5395 50.6398 49.2875 51.2851 49.1147C52.3687 48.8251 53.2632 48.8999 54.3823 48.6118C54.8868 48.4681 55.453 48.324 55.8224 48.1804V47.893C55.453 47.3142 54.926 46.5478 54.3092 46.0239C52.6956 44.6534 50.97 43.2839 49.1566 42.1418C48.1509 41.5089 46.9254 41.0973 45.8599 40.5605C45.5012 40.3796 44.8804 40.2857 44.6433 39.985C44.083 39.2732 43.7834 38.3706 43.3513 37.5413C42.4468 35.8034 41.5604 33.9056 40.7589 32.0771C40.2123 30.8304 39.8566 29.6013 39.1748 28.4827C35.9025 23.1159 32.3809 19.877 26.925 16.6931C25.7634 16.0159 24.3658 15.7488 22.8885 15.3988C22.0966 15.3512 21.3037 15.303 20.5111 15.2547C20.0269 15.0536 19.5234 14.463 19.0699 14.1763C17.2616 13.0372 12.6253 10.5595 11.2865 13.8171C10.441 15.8733 12.5496 17.879 13.3038 18.9213C13.8338 19.6515 14.5115 20.4713 14.8894 21.2932C15.1387 21.8337 15.1811 22.3757 15.3942 22.9471C15.918 24.3552 16.3734 25.8872 17.0515 27.1881C17.3938 27.8468 17.7713 28.5402 18.2045 29.129C18.4697 29.4904 18.9247 29.6495 18.9968 30.2073C18.5521 30.8285 18.5266 31.7931 18.2766 32.58C17.1501 36.1225 17.5756 40.5259 19.2136 43.1476C19.7159 43.953 20.9 45.6791 22.5284 45.0167C23.9526 44.4382 23.7199 42.6447 24.1272 41.0627C24.2192 40.7046 24.0589 40.4408 24.4283 40.2002V40.2721C24.8062 41.1466 25.2104 42.0096 25.6404 42.8599C26.6007 44.4025 28.1848 46.0144 29.6285 47.102C30.3772 47.666 31.0763 48.6409 31.815 48.971V48.9338H31.8967C31.7094 48.5654 31.4158 48.5038 31.1764 48.2691C30.6125 47.718 29.985 47.0231 29.5192 46.3913C28.2059 44.6129 27.0454 42.662 25.988 40.6357C25.4827 39.6682 25.0436 38.5987 24.6181 37.6142C24.4545 37.2347 24.4563 36.6593 24.1143 36.4629C23.6478 37.1843 22.9612 37.7671 22.6004 38.6193C22.0239 39.981 21.9496 41.6419 21.7358 43.3635C21.6091 43.4085 21.6656 43.3775 21.5914 43.435C20.5875 43.1937 20.2352 42.1632 19.8618 41.2786C18.9181 39.0422 18.743 35.4416 19.5733 32.8678C19.7883 32.2013 20.7593 30.1042 20.3659 29.4885C20.1783 28.8751 19.5593 28.5196 19.2132 28.0506C18.7844 27.4707 18.3567 26.7073 18.0598 26.0375C17.2875 24.2945 16.9274 22.337 16.1141 20.5744C15.7252 19.7318 15.0681 18.8789 14.5285 18.1303C13.9313 17.3002 13.2621 16.689 12.7985 15.6858C12.6342 15.3291 12.4104 14.7581 12.6545 14.3915C12.7321 14.1443 12.8417 14.0411 13.087 13.9604C13.5054 13.6388 14.6689 14.0673 15.1047 14.2474C16.2603 14.7264 17.2251 15.1685 18.2042 15.8155C18.6736 16.1264 19.1493 16.5118 19.7173 16.8802H20.3659C21.3805 16.8802 22.5169 16.9657 23.465 17.2531C25.14 17.7611 26.6413 18.558 28.0049 19.4168C32.1585 22.0334 35.5546 25.7612 37.8781 30.2037C38.2519 30.9191 38.4136 31.6033 38.7427 32.3619C39.4068 33.892 40.2437 35.467 40.9044 36.9632C41.5641 38.4564 42.2067 39.9629 43.1389 41.2053C43.6291 41.8581 45.5215 42.2089 46.3817 42.5718C46.9849 42.8256 47.9728 43.0909 48.5438 43.4339C49.6345 44.0904 50.6912 44.8722 51.715 45.591C52.2261 45.9499 53.798 46.7383 53.8767 47.3882C51.3419 47.319 49.4062 47.5548 47.7512 48.2507C47.2811 48.4486 46.5306 48.4541 46.4538 49.0417C46.7123 49.3118 46.7525 49.7156 46.9579 50.0479C47.3527 50.6853 48.0201 51.5408 48.6155 51.9888C49.2663 52.4788 49.9362 53.0023 50.6336 53.4264C51.8742 54.1806 53.2584 54.6116 54.4529 55.3673C55.1568 55.8131 55.9147 56.3742 56.6006 56.8767C56.9404 57.1254 56.9297 57.5119 57.6683 57.6677V57.5963C57.2994 57.3034 57.3189 56.8988 57.1062 56.5912ZM21.6634 19.9997C21.1349 19.9897 20.7349 20.0575 20.3655 20.143V20.1968H20.4387C20.6909 20.5652 21.136 21.0552 21.4473 21.5003L22.1683 23.0138L22.2396 22.9449C22.6861 22.6306 22.8907 22.1303 22.8881 21.364C22.7097 21.1765 22.6828 20.9418 22.5284 20.7178C22.3223 20.4197 21.923 20.2506 21.6634 19.9997Z" fill="white"/>
<defs>
<filter id="filter0_i_2008_88" x="0" y="0" width="68.7588" height="70.7588" filterUnits="userSpaceOnUse" color-interpolation-filters="sRGB">
<feFlood flood-opacity="0" result="BackgroundImageFix"/>
<feBlend mode="normal" in="SourceGraphic" in2="BackgroundImageFix" result="shape"/>
<feColorMatrix in="SourceAlpha" type="matrix" values="0 0 0 0 0 0 0 0 0 0 0 0 0 0 0 0 0 0 127 0" result="hardAlpha"/>
<feMorphology radius="1" operator="erode" in="SourceAlpha" result="effect1_innerShadow_2008_88"/>
<feOffset dy="2"/>
<feGaussianBlur stdDeviation="3"/>
<feComposite in2="hardAlpha" operator="arithmetic" k2="-1" k3="1"/>
<feColorMatrix type="matrix" values="0 0 0 0 1 0 0 0 0 1 0 0 0 0 1 0 0 0 0.6 0"/>
<feBlend mode="normal" in2="shape" result="effect1_innerShadow_2008_88"/>
</filter>
</defs>
</svg>
