<svg width="69" height="69" viewBox="0 0 69 69" fill="none" xmlns="http://www.w3.org/2000/svg">
<g filter="url(#filter0_i_2041_44)">
<rect width="68.7587" height="68.7587" rx="20" fill="#402BC9"/>
</g>
<path fill-rule="evenodd" clip-rule="evenodd" d="M15 21.4829C15 19.7635 15.683 18.1146 16.8988 16.8988C18.1146 15.683 19.7635 15 21.4829 15H46.1171C47.8365 15 49.4854 15.683 50.7012 16.8988C51.917 18.1146 52.6 19.7635 52.6 21.4829V42.4344C52.6 46.138 47.9125 47.7454 45.6398 44.822L38.5324 35.679V46.7657C38.5324 48.3131 37.9177 49.797 36.8236 50.8912C35.7294 51.9853 34.2455 52.6 32.6981 52.6H21.4829C19.7635 52.6 18.1146 51.917 16.8988 50.7012C15.683 49.4854 15 47.8365 15 46.1171V21.4829ZM21.4829 20.1867C20.7664 20.1867 20.1867 20.7664 20.1867 21.4818V46.1171C20.1867 46.8336 20.7664 47.4143 21.4818 47.4143H32.8924C33.2506 47.4143 33.3457 47.124 33.3457 46.7657V31.8991C33.3457 28.1945 38.0331 26.5871 40.3069 29.5115L47.4143 38.6535V21.4829C47.4143 20.7664 47.4812 20.1867 46.7657 20.1867H21.4829Z" fill="white"/>
<path fill-rule="evenodd" clip-rule="evenodd" d="M15 21.4829C15 19.7635 15.683 18.1146 16.8988 16.8988C18.1146 15.683 19.7635 15 21.4829 15H46.1171C47.8365 15 49.4854 15.683 50.7012 16.8988C51.917 18.1146 52.6 19.7635 52.6 21.4829V42.4344C52.6 46.138 47.9125 47.7454 45.6398 44.822L38.5324 35.679V46.7657C38.5324 48.3131 37.9177 49.797 36.8236 50.8912C35.7294 51.9853 34.2455 52.6 32.6981 52.6H21.4829C19.7635 52.6 18.1146 51.917 16.8988 50.7012C15.683 49.4854 15 47.8365 15 46.1171V21.4829ZM21.4829 20.1867C20.7664 20.1867 20.1867 20.7664 20.1867 21.4818V46.1171C20.1867 46.8336 20.7664 47.4143 21.4818 47.4143H32.8924C33.2506 47.4143 33.3457 47.124 33.3457 46.7657V31.8991C33.3457 28.1945 38.0331 26.5871 40.3069 29.5115L47.4143 38.6535V21.4829C47.4143 20.7664 47.4812 20.1867 46.7657 20.1867H21.4829Z" fill="white"/>
<defs>
<filter id="filter0_i_2041_44" x="0" y="0" width="68.7588" height="70.7588" filterUnits="userSpaceOnUse" color-interpolation-filters="sRGB">
<feFlood flood-opacity="0" result="BackgroundImageFix"/>
<feBlend mode="normal" in="SourceGraphic" in2="BackgroundImageFix" result="shape"/>
<feColorMatrix in="SourceAlpha" type="matrix" values="0 0 0 0 0 0 0 0 0 0 0 0 0 0 0 0 0 0 127 0" result="hardAlpha"/>
<feMorphology radius="1" operator="erode" in="SourceAlpha" result="effect1_innerShadow_2041_44"/>
<feOffset dy="2"/>
<feGaussianBlur stdDeviation="3"/>
<feComposite in2="hardAlpha" operator="arithmetic" k2="-1" k3="1"/>
<feColorMatrix type="matrix" values="0 0 0 0 1 0 0 0 0 1 0 0 0 0 1 0 0 0 0.6 0"/>
<feBlend mode="normal" in2="shape" result="effect1_innerShadow_2041_44"/>
</filter>
</defs>
</svg>
