<svg width="69" height="69" viewBox="0 0 69 69" fill="none" xmlns="http://www.w3.org/2000/svg">
<g filter="url(#filter0_i_2008_82)">
<rect width="68.7587" height="68.7587" rx="20" fill="#402BC9"/>
</g>
<path d="M34.379 21.0713C19.6798 21.0713 7.7627 27.2779 7.7627 34.9339C7.7627 42.5899 19.6798 48.7966 34.379 48.7966C49.0782 48.7966 60.9953 42.5899 60.9953 34.9339C60.9953 27.2779 49.0782 21.0713 34.379 21.0713ZM27.4533 37.6347C26.8181 38.2455 26.1127 38.4975 25.336 38.7572C24.5592 39.0174 23.5707 38.9636 22.3687 38.9636H19.6445L18.8895 43.4411H15.7087L18.5471 28.2178H24.6637C26.504 28.2178 27.8462 28.7618 28.6901 29.7544C29.534 30.7471 29.7875 32.1561 29.4512 33.935C29.3122 34.668 29.0783 35.3494 28.7481 35.9566C28.4058 36.583 27.9688 37.1495 27.4533 37.6347ZM36.7376 38.9636L37.9928 32.5072C38.1357 31.7514 38.0834 31.1899 37.8355 30.9154C37.5872 30.6405 37.0592 30.4565 36.2519 30.4565H33.7294L32.104 38.9636H28.948L31.7864 24.188H34.9423L34.1877 28.2178H36.999C38.7683 28.2178 39.9881 28.5827 40.6595 29.2167C41.3308 29.8507 41.5321 30.7193 41.2637 32.1396L39.9432 38.9636H36.7376ZM54.2769 33.9587C54.1384 34.6917 53.904 35.3615 53.5742 35.9682C53.244 36.5758 52.8127 37.1315 52.2799 37.6347C51.6447 38.2455 50.9389 38.4975 50.1625 38.7572C49.3862 39.0174 48.3968 38.9636 47.1948 38.9636H44.4706L43.7161 43.4411H40.5353L43.3732 28.2178H49.4903C51.3306 28.2178 52.6728 28.7618 53.5163 29.7544C54.3593 30.7471 54.6133 32.1803 54.2769 33.9587ZM48.2848 30.4565H46.1061L44.9181 36.7249H46.8533C48.135 36.7249 49.0908 36.5951 49.7182 36.0981C50.3464 35.602 50.7694 34.8319 50.9894 33.6708C51.2003 32.5555 51.1044 31.6855 50.7019 31.2271C50.2989 30.7686 49.4934 30.4565 48.2848 30.4565ZM23.4587 30.4565H21.2795L20.0915 36.7249H22.0262C23.3084 36.7249 24.2638 36.5951 24.8916 36.0981C25.5194 35.602 25.9428 34.8319 26.1624 33.6708C26.3733 32.5555 26.2774 31.6855 25.8749 31.2271C25.4723 30.7686 24.6672 30.4565 23.4587 30.4565Z" fill="white"/>
<defs>
<filter id="filter0_i_2008_82" x="0" y="0" width="68.7588" height="70.7588" filterUnits="userSpaceOnUse" color-interpolation-filters="sRGB">
<feFlood flood-opacity="0" result="BackgroundImageFix"/>
<feBlend mode="normal" in="SourceGraphic" in2="BackgroundImageFix" result="shape"/>
<feColorMatrix in="SourceAlpha" type="matrix" values="0 0 0 0 0 0 0 0 0 0 0 0 0 0 0 0 0 0 127 0" result="hardAlpha"/>
<feMorphology radius="1" operator="erode" in="SourceAlpha" result="effect1_innerShadow_2008_82"/>
<feOffset dy="2"/>
<feGaussianBlur stdDeviation="3"/>
<feComposite in2="hardAlpha" operator="arithmetic" k2="-1" k3="1"/>
<feColorMatrix type="matrix" values="0 0 0 0 1 0 0 0 0 1 0 0 0 0 1 0 0 0 0.6 0"/>
<feBlend mode="normal" in2="shape" result="effect1_innerShadow_2008_82"/>
</filter>
</defs>
</svg>
