<svg width="58" height="62" viewBox="0 0 58 62" fill="none" xmlns="http://www.w3.org/2000/svg">
<g filter="url(#filter0_d_104_25)">
<path d="M23.2789 36.4133L19.417 16.1841C19.2553 15.3371 20.1697 14.6963 20.9107 15.1373L37.9817 25.2986C38.7392 25.7495 38.5851 26.8887 37.7352 27.1222L29.8882 29.278C29.6391 29.3464 29.4262 29.5086 29.294 29.7305L25.1203 36.7376C24.6496 37.5279 23.4514 37.3169 23.2789 36.4133Z" fill="#402BC9"/>
<path d="M17.4525 16.5592L21.3144 36.7884C21.8319 39.4992 25.4263 40.132 26.8386 37.761L30.8062 31.0999L38.265 29.0508C40.8149 28.3502 41.277 24.9326 39.0047 23.5801L21.9337 13.4187C19.7107 12.0955 16.9673 14.0181 17.4525 16.5592ZM31.0123 30.754C31.012 30.7543 31.0118 30.7547 31.0116 30.7551L31.0123 30.754Z" stroke="white" stroke-width="4" stroke-linecap="square"/>
</g>
<defs>
<filter id="filter0_d_104_25" x="0.393974" y="0.983246" width="57.0777" height="60.2454" filterUnits="userSpaceOnUse" color-interpolation-filters="sRGB">
<feFlood flood-opacity="0" result="BackgroundImageFix"/>
<feColorMatrix in="SourceAlpha" type="matrix" values="0 0 0 0 0 0 0 0 0 0 0 0 0 0 0 0 0 0 127 0" result="hardAlpha"/>
<feOffset dy="5"/>
<feGaussianBlur stdDeviation="7.5"/>
<feColorMatrix type="matrix" values="0 0 0 0 0 0 0 0 0 0 0 0 0 0 0 0 0 0 0.35 0"/>
<feBlend mode="normal" in2="BackgroundImageFix" result="effect1_dropShadow_104_25"/>
<feBlend mode="normal" in="SourceGraphic" in2="effect1_dropShadow_104_25" result="shape"/>
</filter>
</defs>
</svg>
