<svg width="69" height="69" viewBox="0 0 69 69" fill="none" xmlns="http://www.w3.org/2000/svg">
<g filter="url(#filter0_i_2008_83)">
<rect width="68.7587" height="68.7587" rx="20" fill="#402BC9"/>
</g>
<path d="M34.3808 38.5273C36.6719 38.5273 38.5292 36.67 38.5292 34.3789C38.5292 32.0878 36.6719 30.2305 34.3808 30.2305C32.0897 30.2305 30.2324 32.0878 30.2324 34.3789C30.2324 36.67 32.0897 38.5273 34.3808 38.5273Z" fill="white"/>
<path d="M50.137 27.5376C49.3364 27.2465 48.4995 26.9554 47.6261 26.7006C47.8445 25.8273 48.0264 24.9539 48.172 24.117C48.9362 19.3136 48.0992 15.9294 45.7703 14.6193C45.0789 14.2191 44.3147 14.0371 43.4414 14.0371C40.8941 14.0371 37.6554 15.9294 34.3804 19.0952C31.1053 15.9294 27.8667 14.0371 25.3194 14.0371C24.4461 14.0371 23.6819 14.2191 22.9905 14.6193C20.6616 15.9657 19.8246 19.35 20.5888 24.117C20.7343 24.9539 20.9163 25.8273 21.1346 26.7006C20.2613 26.9554 19.4243 27.2101 18.6238 27.5376C14.0751 29.2843 11.6006 31.686 11.6006 34.3788C11.6006 37.0716 14.1115 39.4733 18.6238 41.22C19.4243 41.5111 20.2613 41.8023 21.1346 42.057C20.9163 42.9303 20.7343 43.8037 20.5888 44.6406C19.8246 49.444 20.6616 52.8283 22.9905 54.1383C23.6819 54.5386 24.4461 54.7205 25.3194 54.7205C27.9031 54.7205 31.1417 52.8283 34.3804 49.6624C37.6554 52.8283 40.8941 54.7205 43.4414 54.7205C44.3147 54.7205 45.0789 54.5386 45.7703 54.1383C48.0992 52.7919 48.9362 49.4077 48.172 44.6406C48.0264 43.8037 47.8445 42.9303 47.6261 42.057C48.4995 41.8023 49.3364 41.5475 50.137 41.22C54.6857 39.4733 57.1602 37.0716 57.1602 34.3788C57.1602 31.686 54.6857 29.2843 50.137 27.5376V27.5376ZM44.7514 16.4388C46.2433 17.3122 46.7528 20.005 46.1342 23.8259C46.025 24.59 45.8431 25.3906 45.6247 26.2276C43.7325 25.7909 41.731 25.4998 39.6205 25.3178C38.3832 23.5711 37.1096 22.0064 35.836 20.5872C38.5288 17.9308 41.258 16.1113 43.4777 16.1113C43.9508 16.1113 44.3875 16.2205 44.7514 16.4388V16.4388ZM40.6758 38.0178C40.0207 39.1822 39.2566 40.3467 38.456 41.5111C37.1096 41.6203 35.7632 41.6567 34.3804 41.6567C32.9612 41.6567 31.6148 41.6203 30.3048 41.5111C29.5042 40.3467 28.7764 39.1822 28.1214 38.0178C27.43 36.8169 26.775 35.5797 26.1928 34.3788C26.775 33.178 27.43 31.9407 28.1214 30.7399C28.7764 29.5754 29.5406 28.4109 30.3412 27.2465C31.6876 27.1373 33.034 27.1009 34.4168 27.1009C35.836 27.1009 37.1824 27.1373 38.4924 27.2465C39.293 28.4109 40.0207 29.5754 40.6758 30.7399C41.3672 31.9407 42.0222 33.178 42.6044 34.3788C41.9858 35.5797 41.3672 36.7805 40.6758 38.0178ZM43.6961 36.8169C44.2419 38.0905 44.6786 39.3278 45.0789 40.565C43.8416 40.8561 42.5316 41.0745 41.1488 41.2564C41.5855 40.565 42.0586 39.8372 42.4588 39.0731C42.8955 38.3089 43.2958 37.5447 43.6961 36.8169ZM34.3804 46.6784C33.507 45.7323 32.6701 44.7134 31.8695 43.6581C32.7065 43.6945 33.5434 43.7309 34.3804 43.7309C35.2173 43.7309 36.0543 43.6945 36.8913 43.6581C36.0907 44.7134 35.2537 45.7323 34.3804 46.6784ZM27.6119 41.22C26.2291 41.0381 24.9191 40.8197 23.6819 40.5286C24.0822 39.3278 24.5188 38.0541 25.0647 36.7805C25.465 37.5083 25.8652 38.2725 26.3019 39.0003C26.7386 39.8008 27.1753 40.4922 27.6119 41.22V41.22ZM25.0647 31.9407C24.5188 30.6671 24.0822 29.4298 23.6819 28.1926C24.9191 27.9015 26.2291 27.6832 27.6119 27.5012C27.1753 28.1926 26.7022 28.9204 26.3019 29.6846C25.8652 30.4488 25.465 31.2129 25.0647 31.9407V31.9407ZM34.3804 22.0792C35.2537 23.0253 36.0907 24.0442 36.8913 25.0995C36.0543 25.0631 35.2173 25.0267 34.3804 25.0267C33.5434 25.0267 32.7065 25.0631 31.8695 25.0995C32.6701 24.0442 33.507 23.0253 34.3804 22.0792ZM42.4588 29.721L41.1488 27.5376C42.5316 27.7195 43.8416 27.9379 45.0789 28.229C44.6786 29.4298 44.2419 30.7035 43.6961 31.9771C43.2958 31.2129 42.8955 30.4488 42.4588 29.721ZM22.6266 23.8259C22.008 20.005 22.5174 17.3122 24.0094 16.4388C24.3733 16.2205 24.81 16.1113 25.283 16.1113C27.4664 16.1113 30.1956 17.8944 32.9248 20.5872C31.6512 21.97 30.3775 23.5711 29.1403 25.3178C27.0297 25.4998 25.0283 25.8273 23.136 26.2276C22.9177 25.3906 22.7721 24.59 22.6266 23.8259V23.8259ZM13.6384 34.3788C13.6384 32.6685 15.7126 30.849 19.3515 29.5026C20.0793 29.2115 20.8799 28.9568 21.6805 28.7384C22.2627 30.5579 22.9905 32.4866 23.8638 34.4152C22.9905 36.3438 22.2263 38.2361 21.6805 40.0556C16.6587 38.6 13.6384 36.4166 13.6384 34.3788ZM24.0094 52.3188C22.5174 51.4455 22.008 48.7526 22.6266 44.9318C22.7358 44.1676 22.9177 43.367 23.136 42.53C25.0283 42.9667 27.0297 43.2578 29.1403 43.4398C30.3775 45.1865 31.6512 46.7512 32.9248 48.1704C30.232 50.8268 27.5028 52.6463 25.283 52.6463C24.81 52.6463 24.3733 52.5371 24.0094 52.3188ZM46.1342 44.9318C46.7528 48.7526 46.2433 51.4455 44.7514 52.3188C44.3875 52.5371 43.9508 52.6463 43.4777 52.6463C41.2944 52.6463 38.5652 50.8632 35.836 48.1704C37.1096 46.7876 38.3832 45.1865 39.6205 43.4398C41.731 43.2578 43.7325 42.9303 45.6247 42.53C45.8431 43.367 45.9886 44.1676 46.1342 44.9318V44.9318ZM49.4092 39.255C48.6814 39.5461 47.8809 39.8008 47.0803 40.0192C46.4981 38.1997 45.7703 36.2711 44.8969 34.3424C45.7703 32.4138 46.5345 30.5215 47.0803 28.7021C52.102 30.1576 55.1224 32.341 55.1224 34.3788C55.1224 36.0891 53.0118 37.9086 49.4092 39.255Z" fill="white"/>
<defs>
<filter id="filter0_i_2008_83" x="0" y="0" width="68.7588" height="70.7588" filterUnits="userSpaceOnUse" color-interpolation-filters="sRGB">
<feFlood flood-opacity="0" result="BackgroundImageFix"/>
<feBlend mode="normal" in="SourceGraphic" in2="BackgroundImageFix" result="shape"/>
<feColorMatrix in="SourceAlpha" type="matrix" values="0 0 0 0 0 0 0 0 0 0 0 0 0 0 0 0 0 0 127 0" result="hardAlpha"/>
<feMorphology radius="1" operator="erode" in="SourceAlpha" result="effect1_innerShadow_2008_83"/>
<feOffset dy="2"/>
<feGaussianBlur stdDeviation="3"/>
<feComposite in2="hardAlpha" operator="arithmetic" k2="-1" k3="1"/>
<feColorMatrix type="matrix" values="0 0 0 0 1 0 0 0 0 1 0 0 0 0 1 0 0 0 0.6 0"/>
<feBlend mode="normal" in2="shape" result="effect1_innerShadow_2008_83"/>
</filter>
</defs>
</svg>
