<svg width="4349" height="4468" viewBox="0 0 4349 4468" fill="none" xmlns="http://www.w3.org/2000/svg">
<g style="mix-blend-mode:plus-lighter" filter="url(#filter0_f_1_17)">
<path d="M3023.11 302.489L2535.69 1477.04L3214.08 401.432L2606.55 1518.6L3393.66 519.795L2672.68 1567.34L3559.89 656.281L2733.36 1622.72L3710.94 809.394L2787.92 1684.14L3845.15 977.458L2835.75 1750.93L3961.07 1158.63L2876.35 1822.36L4057.41 1350.93L2909.25 1897.63L4133.12 1552.24L2934.11 1975.94L4187.37 1760.36L2950.64 2056.41L4219.58 1973.02L2958.67 2138.17L4229.37 2187.87L2958.11 2220.32L4216.66 2402.58L2948.97 2301.96L4181.57 2614.78L2931.35 2382.2L4124.5 2822.14L2905.43 2460.16L4046.06 3022.41L2871.51 2534.98L3947.11 3213.38L2829.95 2605.85L3828.75 3392.96L2781.21 2671.98L3692.27 3559.19L2725.82 2732.66L3539.15 3710.23L2664.4 2787.21L3371.09 3844.45L2597.61 2835.05L3189.92 3960.36L2526.19 2875.64L2997.62 4056.7L2450.91 2908.55L2796.31 4132.42L2372.61 2933.4L2588.18 4186.67L2292.14 2949.94L2375.53 4218.87L2210.38 2957.97L2160.67 4228.67L2128.23 2957.41L1945.97 4215.96L2046.58 2948.27L1733.77 4180.87L1966.34 2930.64L1526.4 4123.79L1855.14 2875.64L1217.08 4123.79L1784.24 2835.05L828.407 4348.04L1718.8 2795.6L810.789 3956.98L1676.56 2780.51L789.359 3691.56L1615.89 2725.12L638.311 3538.45L1561.33 2663.7L504.095 3370.39L1513.5 2596.91L388.182 3189.21L1472.9 2525.48L291.841 2996.92L1440 2450.21L216.129 2795.6L1415.14 2371.91L161.874 2587.48L1398.61 2291.43L129.672 2374.82L1390.58 2209.67L119.874 2159.97L1391.13 2127.52L132.589 1945.27L1400.28 2045.88L167.676 1733.07L1417.9 1965.64L224.752 1525.7L1443.82 1887.68L303.192 1325.43L1477.74 1812.86L402.135 1134.46L1519.3 1741.99L520.498 954.881L1568.04 1675.86L656.984 788.656L1623.42 1615.18L810.097 637.608L1684.85 1560.63L978.161 503.392L1751.64 1512.79L1159.33 387.479L1823.06 1472.2L1351.63 291.139L1898.34 1439.3L1552.94 215.426L1976.64 1414.44L1761.07 161.171L2057.11 1397.91L1973.72 128.969L2138.87 1389.87L2188.58 119.171L2221.02 1390.43L2403.28 131.886L2302.67 1399.57L2615.48 166.973L2382.91 1417.2L2822.85 224.049L2460.86 1443.12L3023.11 302.489Z" fill="url(#paint0_angular_1_17)"/>
</g>
<defs>
<filter id="filter0_f_1_17" x="0.874088" y="0.171143" width="4347.5" height="4466.87" filterUnits="userSpaceOnUse" color-interpolation-filters="sRGB">
<feFlood flood-opacity="0" result="BackgroundImageFix"/>
<feBlend mode="normal" in="SourceGraphic" in2="BackgroundImageFix" result="shape"/>
<feGaussianBlur stdDeviation="59.5" result="effect1_foregroundBlur_1_17"/>
</filter>
<radialGradient id="paint0_angular_1_17" cx="0" cy="0" r="1" gradientUnits="userSpaceOnUse" gradientTransform="translate(2793.29 232.757) rotate(114.772) scale(4398.36 3275.19)">
<stop stop-color="white"/>
<stop offset="0.047034" stop-color="white" stop-opacity="0.25"/>
<stop offset="0.0846004" stop-color="white" stop-opacity="0.2"/>
<stop offset="0.114953" stop-color="white" stop-opacity="0"/>
<stop offset="0.968801" stop-color="white" stop-opacity="0.2"/>
<stop offset="0.981281" stop-color="white" stop-opacity="0.8"/>
<stop offset="1" stop-color="white" stop-opacity="0.5"/>
</radialGradient>
</defs>
</svg>
