<svg width="62" height="62" viewBox="0 0 62 62" fill="none" xmlns="http://www.w3.org/2000/svg">
<circle cx="31" cy="31" r="31" fill="url(#paint0_linear_114_6)"/>
<path d="M45.2734 28.8906L36.3522 25.6478L33.1094 16.7266C32.9495 16.296 32.6618 15.9246 32.2847 15.6623C31.9076 15.4001 31.4593 15.2595 31 15.2595C30.5407 15.2595 30.0924 15.4001 29.7153 15.6623C29.3382 15.9246 29.0504 16.296 28.8906 16.7266L25.6478 25.6478L16.7266 28.8906C16.296 29.0504 15.9246 29.3382 15.6623 29.7153C15.4001 30.0924 15.2595 30.5407 15.2595 31C15.2595 31.4593 15.4001 31.9076 15.6623 32.2847C15.9246 32.6618 16.296 32.9495 16.7266 33.1094L25.6478 36.3536L28.8906 45.2734C29.0504 45.704 29.3382 46.0754 29.7153 46.3376C30.0924 46.5999 30.5407 46.7405 31 46.7405C31.4593 46.7405 31.9076 46.5999 32.2847 46.3376C32.6618 46.0754 32.9495 45.704 33.1094 45.2734L36.3536 36.3522L45.2734 33.1094C45.704 32.9495 46.0754 32.6618 46.3376 32.2847C46.5999 31.9076 46.7405 31.4593 46.7405 31C46.7405 30.5407 46.5999 30.0924 46.3376 29.7153C46.0754 29.3382 45.704 29.0504 45.2734 28.8906ZM35.0894 34.4172C34.9351 34.4734 34.7949 34.5627 34.6788 34.6788C34.5627 34.7949 34.4734 34.9351 34.4172 35.0894L31 44.4859L27.5828 35.0894C27.5266 34.9351 27.4373 34.7949 27.3212 34.6788C27.2051 34.5627 27.0649 34.4734 26.9106 34.4172L17.5141 31L26.9106 27.5828C27.0649 27.5266 27.2051 27.4373 27.3212 27.3212C27.4373 27.2051 27.5266 27.0649 27.5828 26.9106L31 17.5141L34.4172 26.9106C34.4734 27.0649 34.5627 27.2051 34.6788 27.3212C34.7949 27.4373 34.9351 27.5266 35.0894 27.5828L44.4859 31L35.0894 34.4172Z" fill="white"/>
<defs>
<linearGradient id="paint0_linear_114_6" x1="4.5" y1="16" x2="31" y2="62" gradientUnits="userSpaceOnUse">
<stop offset="0.000327548" stop-color="#03040A"/>
</linearGradient>
</defs>
</svg>
